<?xml version="1.0" encoding="UTF-8" standalone="no"?>
<!DOCTYPE svg PUBLIC "-//W3C//DTD SVG 1.1//EN" "http://www.w3.org/Graphics/SVG/1.1/DTD/svg11.dtd">
<!-- Generated by graphviz version 2.40.1 (20161225.0304)
 -->
<!-- Title: G Pages: 1 -->
<svg width="243pt" height="206pt" viewBox="0.00 0.00 242.78 206.12" xmlns="http://www.w3.org/2000/svg" xmlns:xlink="http://www.w3.org/1999/xlink">
<g id="graph0" class="graph" transform="scale(1 1) rotate(0) translate(4 202.1186)">
<title>G</title>
<polygon fill="#ffffff" stroke="transparent" points="-4,4 -4,-202.1186 238.7825,-202.1186 238.7825,4 -4,4"/>
<!-- meg -->
<g id="node1" class="node">
<title>meg</title>
<ellipse fill="none" stroke="#000000" cx="108.0593" cy="-18" rx="27.8286" ry="18"/>
<text text-anchor="middle" x="108.0593" y="-13.8" font-family="Times,serif" font-size="14.00" fill="#000000">meg</text>
</g>
<!-- meg&#45;&gt;meg -->
<g id="edge1" class="edge">
<title>meg-&gt;meg</title>
<path fill="none" stroke="#000000" d="M133.8781,-24.6907C144.6186,-25.1521 153.7231,-22.9219 153.7231,-18 153.7231,-14.77 149.8022,-12.6992 144.071,-11.7876"/>
<polygon fill="#000000" stroke="#000000" points="144.0312,-8.282 133.8781,-11.3093 143.703,-15.2743 144.0312,-8.282"/>
</g>
<!-- jo -->
<g id="node2" class="node">
<title>jo</title>
<ellipse fill="none" stroke="#000000" cx="27" cy="-99.0593" rx="27" ry="18"/>
<text text-anchor="middle" x="27" y="-94.8593" font-family="Times,serif" font-size="14.00" fill="#000000">jo</text>
</g>
<!-- meg&#45;&gt;jo -->
<g id="edge4" class="edge">
<title>meg-&gt;jo</title>
<path fill="none" stroke="#000000" d="M85.5484,-40.5109C74.3158,-51.7435 60.7647,-65.2946 49.5295,-76.5298"/>
<polygon fill="#000000" stroke="#000000" points="88.2165,-42.7926 92.8127,-33.2466 83.2667,-37.8428 88.2165,-42.7926"/>
<polygon fill="#000000" stroke="#000000" points="46.7745,-74.3351 42.1783,-83.881 51.7242,-79.2848 46.7745,-74.3351"/>
</g>
<!-- amy -->
<g id="node3" class="node">
<title>amy</title>
<ellipse fill="none" stroke="#000000" cx="189.1186" cy="-99.0593" rx="27.8286" ry="18"/>
<text text-anchor="middle" x="189.1186" y="-94.8593" font-family="Times,serif" font-size="14.00" fill="#000000">amy</text>
</g>
<!-- meg&#45;&gt;amy -->
<g id="edge5" class="edge">
<title>meg-&gt;amy</title>
<path fill="none" stroke="#000000" d="M130.5702,-40.5109C141.8028,-51.7435 155.3539,-65.2946 166.5891,-76.5298"/>
<polygon fill="#000000" stroke="#000000" points="132.8519,-37.8428 123.3059,-33.2466 127.9022,-42.7926 132.8519,-37.8428"/>
<polygon fill="#000000" stroke="#000000" points="164.3944,-79.2848 173.9404,-83.881 169.3441,-74.3351 164.3944,-79.2848"/>
</g>
<!-- jo&#45;&gt;jo -->
<g id="edge2" class="edge">
<title>jo-&gt;jo</title>
<path fill="none" stroke="#000000" d="M52.4435,-105.75C63.0278,-106.2114 72,-103.9812 72,-99.0593 72,-95.8293 68.136,-93.7585 62.4881,-92.847"/>
<polygon fill="#000000" stroke="#000000" points="62.5987,-89.3484 52.4435,-92.3686 62.2656,-96.3404 62.5987,-89.3484"/>
</g>
<!-- amy&#45;&gt;amy -->
<g id="edge3" class="edge">
<title>amy-&gt;amy</title>
<path fill="none" stroke="#000000" d="M214.9374,-105.75C225.6779,-106.2114 234.7825,-103.9812 234.7825,-99.0593 234.7825,-95.8293 230.8615,-93.7585 225.1303,-92.847"/>
<polygon fill="#000000" stroke="#000000" points="225.0905,-89.3413 214.9374,-92.3686 224.7624,-96.3336 225.0905,-89.3413"/>
</g>
<!-- beth -->
<g id="node4" class="node">
<title>beth</title>
<ellipse fill="none" stroke="#000000" cx="108.0593" cy="-180.1186" rx="27.8286" ry="18"/>
<text text-anchor="middle" x="108.0593" y="-175.9186" font-family="Times,serif" font-size="14.00" fill="#000000">beth</text>
</g>
<!-- beth&#45;&gt;meg -->
<g id="edge6" class="edge">
<title>beth-&gt;meg</title>
<path fill="none" stroke="#000000" d="M108.0593,-151.4312C108.0593,-121.8663 108.0593,-76.0476 108.0593,-46.5377"/>
<polygon fill="#000000" stroke="#000000" points="104.5594,-151.8367 108.0593,-161.8367 111.5594,-151.8367 104.5594,-151.8367"/>
<polygon fill="#000000" stroke="#000000" points="111.5594,-46.4638 108.0593,-36.4639 104.5594,-46.4639 111.5594,-46.4638"/>
</g>
<!-- beth&#45;&gt;jo -->
<g id="edge8" class="edge">
<title>beth-&gt;jo</title>
<path fill="none" stroke="#000000" d="M85.5484,-157.6077C74.3158,-146.3751 60.7647,-132.824 49.5295,-121.5888"/>
<polygon fill="#000000" stroke="#000000" points="83.2667,-160.2758 92.8127,-164.872 88.2165,-155.326 83.2667,-160.2758"/>
<polygon fill="#000000" stroke="#000000" points="51.7242,-118.8338 42.1783,-114.2376 46.7745,-123.7836 51.7242,-118.8338"/>
</g>
<!-- beth&#45;&gt;amy -->
<g id="edge7" class="edge">
<title>beth-&gt;amy</title>
<path fill="none" stroke="#000000" d="M130.5702,-157.6077C141.8028,-146.3751 155.3539,-132.824 166.5891,-121.5888"/>
<polygon fill="#000000" stroke="#000000" points="127.9022,-155.326 123.3059,-164.872 132.8519,-160.2758 127.9022,-155.326"/>
<polygon fill="#000000" stroke="#000000" points="169.3441,-123.7836 173.9404,-114.2376 164.3944,-118.8338 169.3441,-123.7836"/>
</g>
</g>
</svg>