<?xml version="1.0" encoding="UTF-8" standalone="no"?>
<!DOCTYPE svg PUBLIC "-//W3C//DTD SVG 1.1//EN" "http://www.w3.org/Graphics/SVG/1.1/DTD/svg11.dtd">
<!-- Generated by graphviz version 2.40.1 (20161225.0304)
 -->
<!-- Title: G Pages: 1 -->
<svg width="192pt" height="171pt" viewBox="0.00 0.00 191.95 171.48" xmlns="http://www.w3.org/2000/svg" xmlns:xlink="http://www.w3.org/1999/xlink">
<g id="graph0" class="graph" transform="scale(1 1) rotate(0) translate(4 167.4769)">
<title>G</title>
<polygon fill="#ffffff" stroke="transparent" points="-4,4 -4,-167.4769 187.9524,-167.4769 187.9524,4 -4,4"/>
<!-- rock -->
<g id="node1" class="node">
<title>rock</title>
<ellipse fill="none" stroke="#000000" cx="32.4817" cy="-18" rx="28.3913" ry="18"/>
<text text-anchor="middle" x="32.4817" y="-13.8" font-family="Times,serif" font-size="14.00" fill="#000000">rock</text>
</g>
<!-- paper -->
<g id="node2" class="node">
<title>paper</title>
<ellipse fill="none" stroke="#000000" cx="32.4817" cy="-145.4769" rx="32.4634" ry="18"/>
<text text-anchor="middle" x="32.4817" y="-141.2769" font-family="Times,serif" font-size="14.00" fill="#000000">paper</text>
</g>
<!-- rock&#45;&gt;paper -->
<g id="edge1" class="edge">
<title>rock-&gt;paper</title>
<path fill="none" stroke="#000000" d="M32.4817,-36.2643C32.4817,-57.3738 32.4817,-92.3688 32.4817,-117.0469"/>
<polygon fill="#000000" stroke="#000000" points="28.9818,-117.2464 32.4817,-127.2464 35.9818,-117.2465 28.9818,-117.2464"/>
</g>
<!-- scissors -->
<g id="node3" class="node">
<title>scissors</title>
<ellipse fill="none" stroke="#000000" cx="142.8799" cy="-81.7384" rx="41.1451" ry="18"/>
<text text-anchor="middle" x="142.8799" y="-77.5384" font-family="Times,serif" font-size="14.00" fill="#000000">scissors</text>
</g>
<!-- paper&#45;&gt;scissors -->
<g id="edge2" class="edge">
<title>paper-&gt;scissors</title>
<path fill="none" stroke="#000000" d="M55.0888,-132.4247C70.6673,-123.4304 91.6418,-111.3208 109.1828,-101.1935"/>
<polygon fill="#000000" stroke="#000000" points="111.0855,-104.1364 117.9958,-96.1053 107.5855,-98.0743 111.0855,-104.1364"/>
</g>
<!-- scissors&#45;&gt;rock -->
<g id="edge3" class="edge">
<title>scissors-&gt;rock</title>
<path fill="none" stroke="#000000" d="M117.8288,-67.2752C101.511,-57.8541 80.1226,-45.5055 62.8396,-35.5272"/>
<polygon fill="#000000" stroke="#000000" points="64.1288,-32.2301 53.7186,-30.2611 60.6288,-38.2923 64.1288,-32.2301"/>
</g>
</g>
</svg>